PathFileType  4	(X/Y/Z) C:\Users\antoi\Documents\MyRepositories\mobilecap\ResultsAnalysis
DataRate	CameraRate	NumFrames	NumMarkers	Units	OrigDataRate	OrigDataStartFrame	OrigNumFrames
100.0	100.0	7	51	mm	100.0	18	143
Frame#	Time	r_knee			r_shank_antsup			r_ankle			r_calc			r_5meta			r_toe			L_knee			L_shank_antsup			L_ankle			L_calc			L_5meta			L_toe			r_sh2			r_sh3			r_sh4			L_sh2			L_sh3			r_thigh1			r_thigh2			r_thigh3			r_thigh4			r_thigh5			L_thigh1			L_thigh2			L_thigh3			L_thigh4			r.ASIS			r.PSIS			L.ASIS			L.PSIS			C7			R_Shoulder			L_Shoulder			R_Sternum			L_Sternum			R_humerus			R_elbow_med			R_elbow_lat			R_forearm			R_wrist_radius			R_wrist_ulna			L_humerus			L_elbow_med			L_elbow_lat			L_forearm			L_wrist_radius			L_wrist_ulna			R_HJC			L_HJC			R_HJC_reg			L_HJC_reg			
		X1	Y1	Z1	X2	Y2	Z2	X3	Y3	Z3	X4	Y4	Z4	X5	Y5	Z5	X6	Y6	Z6	X7	Y7	Z7	X8	Y8	Z8	X9	Y9	Z9	X10	Y10	Z10	X11	Y11	Z11	X12	Y12	Z12	X13	Y13	Z13	X14	Y14	Z14	X15	Y15	Z15	X16	Y16	Z16	X17	Y17	Z17	X18	Y18	Z18	X19	Y19	Z19	X20	Y20	Z20	X21	Y21	Z21	X22	Y22	Z22	X23	Y23	Z23	X24	Y24	Z24	X25	Y25	Z25	X26	Y26	Z26	X27	Y27	Z27	X28	Y28	Z28	X29	Y29	Z29	X30	Y30	Z30	X31	Y31	Z31	X32	Y32	Z32	X33	Y33	Z33	X34	Y34	Z34	X35	Y35	Z35	X36	Y36	Z36	X37	Y37	Z37	X38	Y38	Z38	X39	Y39	Z39	X40	Y40	Z40	X41	Y41	Z41	X42	Y42	Z42	X43	Y43	Z43	X44	Y44	Z44	X45	Y45	Z45	X46	Y46	Z46	X47	Y47	Z47	X48	Y48	Z48	X49	Y49	Z49	X50	Y50	Z50	X51	Y51	Z51	

18	0.17000000	243.72546	492.75894	-66.62915	283.98245	429.56993	-89.39958	227.20378	90.97269	-112.13487	155.69908	68.16700	-146.30582	330.99962	41.74721	-84.76795	376.89321	69.54177	-143.34802	134.20318	467.57389	-350.35660	94.61495	380.15369	-352.87069	-181.48412	240.97559	-299.72947	-229.85628	286.32033	-243.28511	-203.91662	109.96140	-323.73471	-145.02168	88.00423	-284.74889	272.00781	311.84014	-76.39654	211.77226	433.27169	-49.54141	197.12732	322.15265	-55.01840	47.73891	456.38135	-342.97352	-50.78010	384.41020	-336.83850	238.25112	816.07126	-19.90855	263.43129	704.77895	-34.75908	214.51304	671.39548	1.13415	135.98312	791.89857	13.44401	155.85758	678.29339	-2.27657	41.63688	715.06481	-311.87742	68.47405	578.65972	-312.68281	137.12771	732.54323	-377.31821	163.51145	597.63844	-367.21097	224.28464	968.02317	-65.98880	19.44580	996.46844	-114.50011	191.88750	927.90978	-311.95308	-1.11721	988.20038	-213.60902	0.43086	1398.13174	-193.73412	119.27744	1370.17545	-24.86510	68.33817	1359.62184	-380.51669	144.35926	1369.76011	-187.10311	142.56983	1369.99006	-229.99911	134.67113	1235.43556	39.82696	76.25511	1023.96941	9.36030	91.48326	1043.14894	76.23793	164.87497	927.12695	108.35339	203.26619	798.87760	130.16946	173.91560	791.30512	147.91962	106.14518	1248.26843	-436.22027	123.91772	1010.90795	-379.15859	138.56179	1037.47842	-451.83346	237.67664	972.63971	-445.85767	331.35820	844.57716	-443.56921	314.09360	834.42411	-470.89522	145.41806	885.87384	-66.10279	113.64067	859.22051	-268.36938	155.11458	881.58896	-79.98117	121.52981	868.08270	-241.85424	
19	0.18000000	248.63624	492.50510	-66.10808	288.32006	428.77385	-88.92976	227.29794	90.97096	-112.18936	155.72723	68.23383	-146.30158	330.99223	41.71894	-84.69602	376.93977	69.43305	-143.31756	156.81913	470.12407	-351.47455	117.93410	382.76777	-353.32116	-159.69555	247.64971	-300.99438	-208.97293	292.24645	-244.65445	-181.04944	117.45760	-327.09611	-122.92613	94.85847	-287.53150	274.86032	311.16678	-76.09510	216.10260	433.30169	-49.04359	200.16797	322.27618	-54.61390	72.23629	459.45940	-344.59997	-27.19430	388.68077	-338.70096	247.06362	815.79279	-18.73948	270.59322	704.33410	-33.67251	221.16610	671.48960	1.68204	144.12018	792.99484	13.94012	162.68259	679.10218	-2.13075	57.12593	714.18179	-311.04026	87.89781	578.77761	-311.93784	151.65709	734.32741	-377.18103	181.68082	600.17025	-367.88974	234.47273	968.60202	-64.85604	29.82517	997.43656	-114.05019	203.13984	928.75360	-311.33700	9.53627	988.98679	-213.26167	11.45415	1399.34279	-192.63168	130.95493	1371.02240	-24.17811	78.70692	1360.67953	-379.72302	155.38246	1370.77021	-186.47263	153.50555	1371.00804	-229.32946	147.44241	1236.21532	40.07835	89.20733	1024.56995	10.21982	106.22669	1043.35767	76.35614	179.77849	927.89599	107.51552	219.03863	799.70745	128.61096	190.09575	791.97090	146.72061	115.27707	1248.78826	-435.42767	130.44531	1011.26798	-377.76366	145.45051	1037.62130	-450.48012	243.22771	970.68195	-444.55815	333.70577	839.97659	-442.41142	316.49933	830.81772	-470.17166	155.59662	886.53698	-65.42106	124.51057	860.10171	-267.82393	165.30226	882.59668	-78.99365	132.14142	868.78460	-241.15309	
20	0.19000000	253.29609	492.27489	-65.75753	292.34065	428.06193	-88.63965	227.39050	91.00555	-112.26421	155.75029	68.30394	-146.29223	330.98929	41.69874	-84.64038	376.98795	69.33907	-143.29382	179.10137	473.31639	-352.12950	141.34533	385.73235	-353.47548	-137.08171	253.32538	-301.90753	-187.82537	296.63876	-245.54056	-156.37407	124.03584	-330.68131	-99.11087	101.04073	-290.43285	277.53761	310.59698	-75.90449	220.16163	433.36380	-48.66286	203.04601	322.45189	-54.29157	96.30246	462.68459	-345.88512	-3.62180	392.54793	-340.33911	255.62617	815.53053	-17.83546	277.58803	703.95227	-32.90371	227.74514	671.61437	2.02265	152.15837	794.06118	14.34142	169.44634	679.92473	-2.10491	72.39287	713.75491	-310.12104	107.12835	579.45001	-310.82493	165.94573	736.44836	-376.91825	199.55357	603.16561	-368.28705	244.46610	969.20278	-63.78347	40.11252	998.51499	-113.58747	214.36154	929.90503	-310.83465	20.13754	990.04835	-212.90367	22.38900	1400.72761	-191.63522	142.46801	1371.97997	-23.56514	89.05980	1361.84751	-379.00761	166.28247	1371.90478	-185.90182	164.37904	1372.15376	-228.72822	160.13179	1237.10858	40.22014	102.10095	1025.24392	11.07382	120.82927	1043.77280	76.54598	194.84995	928.79637	106.48890	235.02450	800.68949	126.75598	206.56514	792.78743	145.29210	124.26593	1249.35892	-434.67737	136.71694	1011.73858	-376.28260	151.91500	1037.80176	-449.07423	248.30166	968.80376	-443.39253	335.52936	835.55966	-441.48854	318.29246	827.34569	-469.56479	165.63957	887.22831	-64.88031	135.27656	861.27864	-267.45559	175.33752	883.59624	-78.22713	142.66161	869.74593	-240.69963	
21	0.20000000	257.69165	492.07353	-65.54983	296.01801	427.40084	-88.44901	227.47780	91.07358	-112.35599	155.75469	68.34539	-146.28149	330.98904	41.68814	-84.59464	377.03705	69.25517	-143.27008	201.10385	476.99093	-352.38075	164.78616	389.00815	-353.45341	-113.77922	257.81771	-302.61891	-166.18976	299.55620	-246.02212	-130.58356	129.45362	-334.28649	-74.02554	106.27308	-293.45533	279.97536	310.11085	-75.77621	223.89791	433.45702	-48.42857	205.68578	322.67676	-54.09821	119.86347	466.00294	-346.84542	19.87612	395.94282	-341.71253	264.03943	815.28341	-17.17269	284.47334	703.59687	-32.41743	234.27002	671.75416	2.18221	160.15568	795.11018	14.63931	176.16025	680.76000	-2.18321	87.49862	713.71972	-309.18585	126.18391	580.56596	-309.55712	180.10337	738.85299	-376.55904	217.24397	606.55615	-368.40655	254.33430	969.89567	-62.75505	50.33996	999.69929	-113.16095	225.52820	931.41503	-310.36626	30.70911	991.38811	-212.57595	33.25138	1402.28596	-190.74059	153.79355	1373.08260	-23.01404	99.41002	1363.15723	-378.35510	177.07157	1373.17518	-185.37595	175.20012	1373.43976	-228.19128	172.69502	1238.15583	40.26992	114.93380	1026.03358	11.88754	135.25027	1044.42831	76.80213	210.04189	929.86514	105.26200	251.13721	801.83762	124.53036	223.24936	793.80472	143.61308	133.13964	1250.02607	-433.95298	142.72697	1012.38887	-374.70734	157.96488	1038.06740	-447.61303	252.90015	967.04179	-442.35394	336.85031	831.41778	-440.85137	319.45534	824.03884	-469.06674	175.58941	888.00325	-64.46675	145.99437	862.76959	-267.24563	185.28989	884.62309	-77.65305	153.14810	871.01607	-240.43354	
22	0.21000000	261.79347	491.90055	-65.44904	299.34280	426.77300	-88.28731	227.55607	91.16769	-112.45965	155.72640	68.31597	-146.28113	330.98967	41.68629	-84.55392	377.09327	69.17693	-143.24355	222.86030	480.99046	-352.30467	188.17148	392.54773	-353.34740	-89.95941	261.04050	-303.26490	-143.97241	301.03681	-246.21501	-104.17344	133.54240	-337.73041	-47.97193	110.41026	-296.55630	282.12726	309.69256	-75.66995	227.27168	433.58062	-48.35152	208.03269	322.94384	-54.05558	142.86878	469.35930	-347.51363	43.23634	398.82782	-342.79116	272.39067	815.04458	-16.70744	291.27778	703.22494	-32.15713	240.73088	671.88748	2.18408	168.13710	796.15305	14.82265	182.79892	681.60798	-2.35783	102.50548	714.01709	-308.33559	145.08216	582.02728	-308.35443	194.25004	741.49372	-376.14114	234.86911	610.27275	-368.27636	264.12854	970.71100	-61.75479	60.52774	1000.97217	-112.81985	236.62881	933.29770	-309.86904	41.26962	992.98042	-212.32650	44.05252	1403.99841	-189.94103	164.92099	1374.35789	-22.51177	109.76166	1364.62739	-377.74715	187.76912	1374.57537	-184.88214	185.97731	1374.85995	-227.71196	185.08436	1239.39232	40.25567	127.70117	1026.98409	12.62514	149.49152	1045.32946	77.08035	225.29005	931.14531	103.83013	267.28608	803.16783	121.86670	240.06703	795.07309	141.66963	141.92376	1250.83382	-433.24525	148.45413	1013.28392	-373.04214	163.62047	1038.46164	-446.09960	257.03210	965.42766	-441.43161	337.69110	827.60704	-440.51490	319.97445	820.92025	-468.65761	185.47175	888.88456	-64.17174	156.71276	864.56405	-267.18129	195.20210	885.70073	-77.24028	163.64525	872.60678	-240.30019	
23	0.22000000	265.57793	491.75527	-65.41911	302.33319	426.18791	-88.11014	227.62384	91.27871	-112.56947	155.65547	68.17497	-146.30956	330.98979	41.69014	-84.51438	377.17096	69.10187	-143.21986	244.37419	485.18459	-351.99104	211.40768	396.29839	-353.21011	-65.76805	262.98982	-303.94085	-121.20302	301.10061	-246.26544	-77.34000	136.22272	-340.88121	-21.08668	113.42178	-299.62919	283.98509	309.33381	-75.56246	230.27542	433.73388	-48.41658	210.06677	323.24939	-54.15332	165.28841	472.70549	-347.91795	66.39141	401.20015	-343.55777	280.74007	814.80815	-16.38465	298.00080	702.80147	-32.05778	247.10396	671.99492	2.04818	176.09969	797.19723	14.88825	189.31961	682.47305	-2.62549	117.47899	714.58729	-307.68972	163.83502	583.76035	-307.40658	208.49468	744.33371	-375.70831	252.52772	614.25290	-367.95248	273.87698	971.63703	-60.76789	70.68158	1002.30980	-112.60633	247.67263	935.53033	-309.30472	51.83128	994.77716	-212.20139	54.79931	1405.82716	-189.22752	175.85519	1375.81996	-22.04596	120.10988	1366.25763	-377.16588	198.40117	1376.08458	-184.41012	196.71434	1376.39347	-227.28095	197.25906	1240.83782	40.21177	140.39954	1028.13112	13.25181	163.57169	1046.45946	77.32156	240.52420	932.67283	102.19870	283.40075	804.70058	118.73670	256.94748	796.62904	139.45840	150.64347	1251.81335	-432.55200	153.88399	1014.46682	-371.30075	168.91247	1039.01644	-444.54097	260.71240	963.98377	-440.61419	338.06999	824.14028	-440.44742	319.85237	818.00423	-468.30760	195.29354	889.86200	-63.99147	167.46934	866.62663	-267.25621	205.08707	886.84177	-76.95720	174.18025	874.49268	-240.25534	
24	0.23000000	269.04117	491.63900	-65.42845	305.03092	425.67557	-87.90338	227.68348	91.39901	-112.68005	155.54252	67.90379	-146.38433	330.98889	41.69527	-84.47299	377.29256	69.03083	-143.21517	265.61836	489.48424	-351.53449	234.41118	400.20549	-353.05351	-41.27809	263.70660	-304.69361	-97.98098	299.75997	-246.33537	-49.99627	137.50089	-343.66230	6.61840	115.35231	-302.51152	285.58280	309.03307	-75.44766	232.94175	433.91452	-48.58355	211.80292	323.59715	-54.35363	187.11332	476.00079	-348.06571	89.28227	403.08257	-344.01073	289.11180	814.56953	-16.14719	304.62180	702.30665	-32.05654	253.36032	672.06484	1.79404	184.02342	798.24406	14.84764	195.68043	683.36219	-2.98506	132.47965	715.36801	-307.36617	182.44427	585.71567	-306.84880	222.91565	747.34401	-375.30771	270.28161	618.44329	-367.51249	283.59563	972.63431	-59.78173	80.79673	1003.68543	-112.55170	258.68248	938.05819	-308.65724	62.39893	996.71668	-212.23630	65.49652	1407.72172	-188.58959	186.61601	1377.46464	-21.60616	130.44231	1368.02617	-376.59739	208.99607	1377.67280	-183.95268	207.40863	1378.01092	-226.88740	209.19425	1242.48948	40.17276	153.03107	1029.48858	13.73681	177.50302	1047.78599	77.47536	255.68066	934.46401	100.38490	299.45453	806.46395	115.17888	273.84248	798.48362	136.98778	159.32438	1252.97222	-431.87586	159.03222	1015.94345	-369.49944	173.88007	1039.74715	-442.94617	263.96373	962.72035	-439.89063	337.99980	820.99817	-440.57922	319.12144	815.29920	-467.98501	205.05208	890.90393	-63.92277	178.28942	868.90221	-267.46433	214.94102	888.04712	-76.77153	184.76672	876.61837	-240.26401	
